<mxfile modified="2023-09-10T10:47:18.278Z" host="app.diagrams.net" agent="Mozilla/5.0 (Macintosh; Intel Mac OS X 10_15_7) AppleWebKit/537.36 (KHTML, like Gecko) Chrome/116.0.0.0 Safari/537.36" etag="FTaT480MxWGO64dFT1Gw" version="21.7.4" type="github">
  <diagram id="Ht1M8jgEwFfnCIfOTk4-" name="Page-1">
    <mxGraphModel dx="1662" dy="472" grid="1" gridSize="10" guides="1" tooltips="1" connect="1" arrows="1" fold="1" page="1" pageScale="1" pageWidth="1169" pageHeight="827" math="0" shadow="0">
      <root>
        <mxCell id="0" />
        <mxCell id="1" parent="0" />
        <mxCell id="DdXQzqJ5ZMWsTik3K9Qf-1" value="" style="fillColor=#EFF0F3;strokeColor=none;dashed=0;verticalAlign=top;fontStyle=0;fontColor=#232F3D;whiteSpace=wrap;html=1;" vertex="1" parent="1">
          <mxGeometry x="-882" y="150" width="552" height="230" as="geometry" />
        </mxCell>
        <mxCell id="DdXQzqJ5ZMWsTik3K9Qf-2" value="" style="sketch=0;points=[[0,0,0],[0.25,0,0],[0.5,0,0],[0.75,0,0],[1,0,0],[0,1,0],[0.25,1,0],[0.5,1,0],[0.75,1,0],[1,1,0],[0,0.25,0],[0,0.5,0],[0,0.75,0],[1,0.25,0],[1,0.5,0],[1,0.75,0]];outlineConnect=0;fontColor=#232F3E;fillColor=#C925D1;strokeColor=#ffffff;dashed=0;verticalLabelPosition=bottom;verticalAlign=top;align=center;html=1;fontSize=12;fontStyle=0;aspect=fixed;shape=mxgraph.aws4.resourceIcon;resIcon=mxgraph.aws4.codepipeline;" vertex="1" parent="1">
          <mxGeometry x="-922" y="120" width="78" height="78" as="geometry" />
        </mxCell>
        <mxCell id="DdXQzqJ5ZMWsTik3K9Qf-3" value="CodePipeline" style="text;html=1;align=center;verticalAlign=middle;resizable=0;points=[];autosize=1;strokeColor=none;fillColor=none;" vertex="1" parent="1">
          <mxGeometry x="-928" y="198" width="90" height="30" as="geometry" />
        </mxCell>
        <mxCell id="DdXQzqJ5ZMWsTik3K9Qf-14" value="" style="edgeStyle=orthogonalEdgeStyle;rounded=0;orthogonalLoop=1;jettySize=auto;html=1;" edge="1" parent="1" source="DdXQzqJ5ZMWsTik3K9Qf-4" target="DdXQzqJ5ZMWsTik3K9Qf-6">
          <mxGeometry relative="1" as="geometry" />
        </mxCell>
        <mxCell id="DdXQzqJ5ZMWsTik3K9Qf-4" value="" style="sketch=0;outlineConnect=0;fontColor=#232F3E;gradientColor=none;fillColor=#232F3D;strokeColor=none;dashed=0;verticalLabelPosition=bottom;verticalAlign=top;align=center;html=1;fontSize=12;fontStyle=0;aspect=fixed;pointerEvents=1;shape=mxgraph.aws4.client;" vertex="1" parent="1">
          <mxGeometry x="-1000" y="240" width="78" height="76" as="geometry" />
        </mxCell>
        <mxCell id="DdXQzqJ5ZMWsTik3K9Qf-5" value="自分のPC" style="text;html=1;align=center;verticalAlign=middle;resizable=0;points=[];autosize=1;strokeColor=none;fillColor=none;" vertex="1" parent="1">
          <mxGeometry x="-1001" y="316" width="80" height="30" as="geometry" />
        </mxCell>
        <mxCell id="DdXQzqJ5ZMWsTik3K9Qf-15" value="" style="edgeStyle=orthogonalEdgeStyle;rounded=0;orthogonalLoop=1;jettySize=auto;html=1;" edge="1" parent="1" source="DdXQzqJ5ZMWsTik3K9Qf-6" target="DdXQzqJ5ZMWsTik3K9Qf-7">
          <mxGeometry relative="1" as="geometry" />
        </mxCell>
        <mxCell id="DdXQzqJ5ZMWsTik3K9Qf-6" value="" style="sketch=0;points=[[0,0,0],[0.25,0,0],[0.5,0,0],[0.75,0,0],[1,0,0],[0,1,0],[0.25,1,0],[0.5,1,0],[0.75,1,0],[1,1,0],[0,0.25,0],[0,0.5,0],[0,0.75,0],[1,0.25,0],[1,0.5,0],[1,0.75,0]];outlineConnect=0;fontColor=#232F3E;fillColor=#C925D1;strokeColor=#ffffff;dashed=0;verticalLabelPosition=bottom;verticalAlign=top;align=center;html=1;fontSize=12;fontStyle=0;aspect=fixed;shape=mxgraph.aws4.resourceIcon;resIcon=mxgraph.aws4.codecommit;" vertex="1" parent="1">
          <mxGeometry x="-830" y="240" width="78" height="78" as="geometry" />
        </mxCell>
        <mxCell id="DdXQzqJ5ZMWsTik3K9Qf-18" value="" style="edgeStyle=orthogonalEdgeStyle;rounded=0;orthogonalLoop=1;jettySize=auto;html=1;entryX=0;entryY=0.5;entryDx=0;entryDy=0;entryPerimeter=0;" edge="1" parent="1" source="DdXQzqJ5ZMWsTik3K9Qf-7" target="DdXQzqJ5ZMWsTik3K9Qf-8">
          <mxGeometry relative="1" as="geometry" />
        </mxCell>
        <mxCell id="DdXQzqJ5ZMWsTik3K9Qf-7" value="" style="sketch=0;points=[[0,0,0],[0.25,0,0],[0.5,0,0],[0.75,0,0],[1,0,0],[0,1,0],[0.25,1,0],[0.5,1,0],[0.75,1,0],[1,1,0],[0,0.25,0],[0,0.5,0],[0,0.75,0],[1,0.25,0],[1,0.5,0],[1,0.75,0]];outlineConnect=0;fontColor=#232F3E;fillColor=#C925D1;strokeColor=#ffffff;dashed=0;verticalLabelPosition=bottom;verticalAlign=top;align=center;html=1;fontSize=12;fontStyle=0;aspect=fixed;shape=mxgraph.aws4.resourceIcon;resIcon=mxgraph.aws4.codebuild;" vertex="1" parent="1">
          <mxGeometry x="-650" y="240" width="78" height="78" as="geometry" />
        </mxCell>
        <mxCell id="DdXQzqJ5ZMWsTik3K9Qf-19" style="edgeStyle=orthogonalEdgeStyle;rounded=0;orthogonalLoop=1;jettySize=auto;html=1;" edge="1" parent="1" source="DdXQzqJ5ZMWsTik3K9Qf-8" target="DdXQzqJ5ZMWsTik3K9Qf-9">
          <mxGeometry relative="1" as="geometry" />
        </mxCell>
        <mxCell id="DdXQzqJ5ZMWsTik3K9Qf-8" value="" style="sketch=0;points=[[0,0,0],[0.25,0,0],[0.5,0,0],[0.75,0,0],[1,0,0],[0,1,0],[0.25,1,0],[0.5,1,0],[0.75,1,0],[1,1,0],[0,0.25,0],[0,0.5,0],[0,0.75,0],[1,0.25,0],[1,0.5,0],[1,0.75,0]];outlineConnect=0;fontColor=#232F3E;fillColor=#C925D1;strokeColor=#ffffff;dashed=0;verticalLabelPosition=bottom;verticalAlign=top;align=center;html=1;fontSize=12;fontStyle=0;aspect=fixed;shape=mxgraph.aws4.resourceIcon;resIcon=mxgraph.aws4.codedeploy;" vertex="1" parent="1">
          <mxGeometry x="-460" y="240" width="78" height="78" as="geometry" />
        </mxCell>
        <mxCell id="DdXQzqJ5ZMWsTik3K9Qf-9" value="" style="sketch=0;outlineConnect=0;fontColor=#232F3E;gradientColor=none;fillColor=#232F3D;strokeColor=none;dashed=0;verticalLabelPosition=bottom;verticalAlign=top;align=center;html=1;fontSize=12;fontStyle=0;aspect=fixed;pointerEvents=1;shape=mxgraph.aws4.traditional_server;" vertex="1" parent="1">
          <mxGeometry x="-260" y="240" width="45" height="78" as="geometry" />
        </mxCell>
        <mxCell id="DdXQzqJ5ZMWsTik3K9Qf-10" value="CodeCommit" style="text;html=1;align=center;verticalAlign=middle;resizable=0;points=[];autosize=1;strokeColor=none;fillColor=none;" vertex="1" parent="1">
          <mxGeometry x="-835" y="318" width="90" height="30" as="geometry" />
        </mxCell>
        <mxCell id="DdXQzqJ5ZMWsTik3K9Qf-11" value="CodeBuild" style="text;html=1;align=center;verticalAlign=middle;resizable=0;points=[];autosize=1;strokeColor=none;fillColor=none;" vertex="1" parent="1">
          <mxGeometry x="-651" y="318" width="80" height="30" as="geometry" />
        </mxCell>
        <mxCell id="DdXQzqJ5ZMWsTik3K9Qf-12" value="CodeDeploy" style="text;html=1;align=center;verticalAlign=middle;resizable=0;points=[];autosize=1;strokeColor=none;fillColor=none;" vertex="1" parent="1">
          <mxGeometry x="-466" y="318" width="90" height="30" as="geometry" />
        </mxCell>
        <mxCell id="DdXQzqJ5ZMWsTik3K9Qf-13" value="本番サーバー" style="text;html=1;align=center;verticalAlign=middle;resizable=0;points=[];autosize=1;strokeColor=none;fillColor=none;" vertex="1" parent="1">
          <mxGeometry x="-280" y="318" width="90" height="30" as="geometry" />
        </mxCell>
        <mxCell id="DdXQzqJ5ZMWsTik3K9Qf-20" value="&lt;font style=&quot;font-size: 24px;&quot;&gt;&lt;b&gt;1&lt;/b&gt;&lt;/font&gt;" style="text;html=1;align=center;verticalAlign=middle;resizable=0;points=[];autosize=1;strokeColor=none;fillColor=none;" vertex="1" parent="1">
          <mxGeometry x="-903" y="240" width="40" height="40" as="geometry" />
        </mxCell>
        <mxCell id="DdXQzqJ5ZMWsTik3K9Qf-21" value="&lt;span style=&quot;font-size: 24px;&quot;&gt;&lt;b&gt;2&lt;/b&gt;&lt;/span&gt;" style="text;html=1;align=center;verticalAlign=middle;resizable=0;points=[];autosize=1;strokeColor=none;fillColor=none;" vertex="1" parent="1">
          <mxGeometry x="-720" y="240" width="40" height="40" as="geometry" />
        </mxCell>
        <mxCell id="DdXQzqJ5ZMWsTik3K9Qf-22" value="&lt;span style=&quot;font-size: 24px;&quot;&gt;&lt;b&gt;3&lt;/b&gt;&lt;/span&gt;" style="text;html=1;align=center;verticalAlign=middle;resizable=0;points=[];autosize=1;strokeColor=none;fillColor=none;" vertex="1" parent="1">
          <mxGeometry x="-540" y="240" width="40" height="40" as="geometry" />
        </mxCell>
        <mxCell id="DdXQzqJ5ZMWsTik3K9Qf-23" value="&lt;span style=&quot;font-size: 24px;&quot;&gt;&lt;b&gt;4&lt;/b&gt;&lt;/span&gt;" style="text;html=1;align=center;verticalAlign=middle;resizable=0;points=[];autosize=1;strokeColor=none;fillColor=none;" vertex="1" parent="1">
          <mxGeometry x="-340" y="240" width="40" height="40" as="geometry" />
        </mxCell>
        <mxCell id="DdXQzqJ5ZMWsTik3K9Qf-24" value="" style="sketch=0;points=[[0,0,0],[0.25,0,0],[0.5,0,0],[0.75,0,0],[1,0,0],[0,1,0],[0.25,1,0],[0.5,1,0],[0.75,1,0],[1,1,0],[0,0.25,0],[0,0.5,0],[0,0.75,0],[1,0.25,0],[1,0.5,0],[1,0.75,0]];outlineConnect=0;fontColor=#232F3E;fillColor=#ED7100;strokeColor=#ffffff;dashed=0;verticalLabelPosition=bottom;verticalAlign=top;align=center;html=1;fontSize=12;fontStyle=0;aspect=fixed;shape=mxgraph.aws4.resourceIcon;resIcon=mxgraph.aws4.ecr;" vertex="1" parent="1">
          <mxGeometry x="-841" y="546" width="78" height="78" as="geometry" />
        </mxCell>
        <mxCell id="DdXQzqJ5ZMWsTik3K9Qf-25" value="" style="fillColor=#EFF0F3;strokeColor=none;dashed=0;verticalAlign=top;fontStyle=0;fontColor=#232F3D;whiteSpace=wrap;html=1;" vertex="1" parent="1">
          <mxGeometry x="-722" y="470" width="482" height="230" as="geometry" />
        </mxCell>
        <mxCell id="DdXQzqJ5ZMWsTik3K9Qf-26" value="" style="sketch=0;points=[[0,0,0],[0.25,0,0],[0.5,0,0],[0.75,0,0],[1,0,0],[0,1,0],[0.25,1,0],[0.5,1,0],[0.75,1,0],[1,1,0],[0,0.25,0],[0,0.5,0],[0,0.75,0],[1,0.25,0],[1,0.5,0],[1,0.75,0]];outlineConnect=0;fontColor=#232F3E;fillColor=#ED7100;strokeColor=#ffffff;dashed=0;verticalLabelPosition=bottom;verticalAlign=top;align=center;html=1;fontSize=12;fontStyle=0;aspect=fixed;shape=mxgraph.aws4.resourceIcon;resIcon=mxgraph.aws4.ecs;" vertex="1" parent="1">
          <mxGeometry x="-756" y="430" width="78" height="78" as="geometry" />
        </mxCell>
        <mxCell id="DdXQzqJ5ZMWsTik3K9Qf-27" value="ECR" style="text;html=1;align=center;verticalAlign=middle;resizable=0;points=[];autosize=1;strokeColor=none;fillColor=none;" vertex="1" parent="1">
          <mxGeometry x="-825" y="624" width="50" height="30" as="geometry" />
        </mxCell>
        <mxCell id="DdXQzqJ5ZMWsTik3K9Qf-41" value="" style="edgeStyle=orthogonalEdgeStyle;rounded=0;orthogonalLoop=1;jettySize=auto;html=1;" edge="1" parent="1" source="DdXQzqJ5ZMWsTik3K9Qf-28" target="DdXQzqJ5ZMWsTik3K9Qf-24">
          <mxGeometry relative="1" as="geometry" />
        </mxCell>
        <mxCell id="DdXQzqJ5ZMWsTik3K9Qf-28" value="" style="sketch=0;outlineConnect=0;fontColor=#232F3E;gradientColor=none;fillColor=#232F3D;strokeColor=none;dashed=0;verticalLabelPosition=bottom;verticalAlign=top;align=center;html=1;fontSize=12;fontStyle=0;aspect=fixed;pointerEvents=1;shape=mxgraph.aws4.client;" vertex="1" parent="1">
          <mxGeometry x="-1000" y="546" width="78" height="76" as="geometry" />
        </mxCell>
        <mxCell id="DdXQzqJ5ZMWsTik3K9Qf-29" value="自分のPC" style="text;html=1;align=center;verticalAlign=middle;resizable=0;points=[];autosize=1;strokeColor=none;fillColor=none;" vertex="1" parent="1">
          <mxGeometry x="-1000" y="624" width="80" height="30" as="geometry" />
        </mxCell>
        <mxCell id="DdXQzqJ5ZMWsTik3K9Qf-30" value="ECS" style="text;html=1;align=center;verticalAlign=middle;resizable=0;points=[];autosize=1;strokeColor=none;fillColor=none;" vertex="1" parent="1">
          <mxGeometry x="-742" y="508" width="50" height="30" as="geometry" />
        </mxCell>
        <mxCell id="DdXQzqJ5ZMWsTik3K9Qf-47" value="" style="edgeStyle=orthogonalEdgeStyle;rounded=0;orthogonalLoop=1;jettySize=auto;html=1;" edge="1" parent="1" source="DdXQzqJ5ZMWsTik3K9Qf-31" target="DdXQzqJ5ZMWsTik3K9Qf-34">
          <mxGeometry relative="1" as="geometry" />
        </mxCell>
        <mxCell id="DdXQzqJ5ZMWsTik3K9Qf-31" value="" style="sketch=0;outlineConnect=0;fontColor=#232F3E;gradientColor=none;fillColor=#ED7100;strokeColor=none;dashed=0;verticalLabelPosition=bottom;verticalAlign=top;align=center;html=1;fontSize=12;fontStyle=0;aspect=fixed;pointerEvents=1;shape=mxgraph.aws4.ecs_task;" vertex="1" parent="1">
          <mxGeometry x="-670" y="561" width="37" height="48" as="geometry" />
        </mxCell>
        <mxCell id="DdXQzqJ5ZMWsTik3K9Qf-49" value="" style="edgeStyle=orthogonalEdgeStyle;rounded=0;orthogonalLoop=1;jettySize=auto;html=1;" edge="1" parent="1" source="DdXQzqJ5ZMWsTik3K9Qf-32" target="DdXQzqJ5ZMWsTik3K9Qf-38">
          <mxGeometry relative="1" as="geometry" />
        </mxCell>
        <mxCell id="DdXQzqJ5ZMWsTik3K9Qf-32" value="" style="sketch=0;points=[[0,0,0],[0.25,0,0],[0.5,0,0],[0.75,0,0],[1,0,0],[0,1,0],[0.25,1,0],[0.5,1,0],[0.75,1,0],[1,1,0],[0,0.25,0],[0,0.5,0],[0,0.75,0],[1,0.25,0],[1,0.5,0],[1,0.75,0]];outlineConnect=0;fontColor=#232F3E;fillColor=#ED7100;strokeColor=#ffffff;dashed=0;verticalLabelPosition=bottom;verticalAlign=top;align=center;html=1;fontSize=12;fontStyle=0;aspect=fixed;shape=mxgraph.aws4.resourceIcon;resIcon=mxgraph.aws4.fargate;" vertex="1" parent="1">
          <mxGeometry x="-376" y="546" width="78" height="78" as="geometry" />
        </mxCell>
        <mxCell id="DdXQzqJ5ZMWsTik3K9Qf-48" value="" style="edgeStyle=orthogonalEdgeStyle;rounded=0;orthogonalLoop=1;jettySize=auto;html=1;entryX=0;entryY=0.5;entryDx=0;entryDy=0;entryPerimeter=0;" edge="1" parent="1" source="DdXQzqJ5ZMWsTik3K9Qf-34" target="DdXQzqJ5ZMWsTik3K9Qf-32">
          <mxGeometry relative="1" as="geometry">
            <mxPoint x="-420" y="585" as="targetPoint" />
          </mxGeometry>
        </mxCell>
        <mxCell id="DdXQzqJ5ZMWsTik3K9Qf-34" value="" style="sketch=0;outlineConnect=0;fontColor=#232F3E;gradientColor=none;fillColor=#ED7100;strokeColor=none;dashed=0;verticalLabelPosition=bottom;verticalAlign=top;align=center;html=1;fontSize=12;fontStyle=0;aspect=fixed;pointerEvents=1;shape=mxgraph.aws4.ecs_service;" vertex="1" parent="1">
          <mxGeometry x="-528" y="561" width="39" height="48" as="geometry" />
        </mxCell>
        <mxCell id="DdXQzqJ5ZMWsTik3K9Qf-35" value="タスク定義ファイル" style="text;html=1;align=center;verticalAlign=middle;resizable=0;points=[];autosize=1;strokeColor=none;fillColor=none;" vertex="1" parent="1">
          <mxGeometry x="-716.5" y="622" width="130" height="30" as="geometry" />
        </mxCell>
        <mxCell id="DdXQzqJ5ZMWsTik3K9Qf-36" value="サービス" style="text;html=1;align=center;verticalAlign=middle;resizable=0;points=[];autosize=1;strokeColor=none;fillColor=none;" vertex="1" parent="1">
          <mxGeometry x="-538" y="624" width="70" height="30" as="geometry" />
        </mxCell>
        <mxCell id="DdXQzqJ5ZMWsTik3K9Qf-37" value="Fargate" style="text;html=1;align=center;verticalAlign=middle;resizable=0;points=[];autosize=1;strokeColor=none;fillColor=none;" vertex="1" parent="1">
          <mxGeometry x="-367" y="624" width="60" height="30" as="geometry" />
        </mxCell>
        <mxCell id="DdXQzqJ5ZMWsTik3K9Qf-38" value="" style="outlineConnect=0;dashed=0;verticalLabelPosition=bottom;verticalAlign=top;align=center;html=1;shape=mxgraph.aws3.internet;fillColor=#D2D3D3;gradientColor=none;" vertex="1" parent="1">
          <mxGeometry x="-199.75" y="546" width="79.5" height="79.5" as="geometry" />
        </mxCell>
        <mxCell id="DdXQzqJ5ZMWsTik3K9Qf-39" value="インターネット" style="text;html=1;align=center;verticalAlign=middle;resizable=0;points=[];autosize=1;strokeColor=none;fillColor=none;" vertex="1" parent="1">
          <mxGeometry x="-215" y="632" width="110" height="30" as="geometry" />
        </mxCell>
        <mxCell id="DdXQzqJ5ZMWsTik3K9Qf-45" value="" style="edgeStyle=orthogonalEdgeStyle;rounded=0;orthogonalLoop=1;jettySize=auto;html=1;" edge="1" parent="1" source="DdXQzqJ5ZMWsTik3K9Qf-24" target="DdXQzqJ5ZMWsTik3K9Qf-31">
          <mxGeometry relative="1" as="geometry" />
        </mxCell>
        <mxCell id="DdXQzqJ5ZMWsTik3K9Qf-50" value="&lt;font style=&quot;font-size: 24px;&quot;&gt;&lt;b&gt;1&lt;/b&gt;&lt;/font&gt;" style="text;html=1;align=center;verticalAlign=middle;resizable=0;points=[];autosize=1;strokeColor=none;fillColor=none;" vertex="1" parent="1">
          <mxGeometry x="-903" y="544" width="40" height="40" as="geometry" />
        </mxCell>
        <mxCell id="DdXQzqJ5ZMWsTik3K9Qf-51" value="&lt;span style=&quot;font-size: 24px;&quot;&gt;&lt;b&gt;2&lt;/b&gt;&lt;/span&gt;" style="text;html=1;align=center;verticalAlign=middle;resizable=0;points=[];autosize=1;strokeColor=none;fillColor=none;" vertex="1" parent="1">
          <mxGeometry x="-737" y="546" width="40" height="40" as="geometry" />
        </mxCell>
        <mxCell id="DdXQzqJ5ZMWsTik3K9Qf-52" value="&lt;span style=&quot;font-size: 24px;&quot;&gt;&lt;b&gt;3&lt;/b&gt;&lt;/span&gt;" style="text;html=1;align=center;verticalAlign=middle;resizable=0;points=[];autosize=1;strokeColor=none;fillColor=none;" vertex="1" parent="1">
          <mxGeometry x="-614" y="546" width="40" height="40" as="geometry" />
        </mxCell>
        <mxCell id="DdXQzqJ5ZMWsTik3K9Qf-53" value="&lt;span style=&quot;font-size: 24px;&quot;&gt;&lt;b&gt;4&lt;/b&gt;&lt;/span&gt;" style="text;html=1;align=center;verticalAlign=middle;resizable=0;points=[];autosize=1;strokeColor=none;fillColor=none;" vertex="1" parent="1">
          <mxGeometry x="-444" y="544" width="40" height="40" as="geometry" />
        </mxCell>
        <mxCell id="DdXQzqJ5ZMWsTik3K9Qf-54" value="&lt;span style=&quot;font-size: 24px;&quot;&gt;&lt;b&gt;5&lt;/b&gt;&lt;/span&gt;" style="text;html=1;align=center;verticalAlign=middle;resizable=0;points=[];autosize=1;strokeColor=none;fillColor=none;" vertex="1" parent="1">
          <mxGeometry x="-271.5" y="544" width="40" height="40" as="geometry" />
        </mxCell>
        <mxCell id="DdXQzqJ5ZMWsTik3K9Qf-56" value="クラスター" style="swimlane;" vertex="1" parent="1">
          <mxGeometry x="-574" y="522" width="130" height="130" as="geometry" />
        </mxCell>
      </root>
    </mxGraphModel>
  </diagram>
</mxfile>
